<svg xmlns="http://www.w3.org/2000/svg" viewBox="0 0 16 16" width="150" height="150">
  <defs>
    <style>.cls-4{fill:#68c7d3}</style>
  </defs>
  <g id="Food_Donate" data-name="Food Donate">
    <path style="fill:#30acc2" d="M0.5 7.5h2v5.5h-2z"/>
    <path d="M9.825 10.5H7a1 1 0 0 1 1-1h1.5a1 1 0 0 0 0-2c-5.1 0-4.09-0.135-6 0.5H2.5v4.5h1c1.805 0.72 2.295 1 3.08 1 3.035 0 3.695 0.135 4.635-0.43l5.435-2.72A1 1 0 0 0 14.155 9c-4.31 1.555-4.08 1.5-4.33 1.5z" style="fill:#d1e6e9"/>
    <path d="M14 6.5H6c-1.665 0-1.305-3.14 1.6-3.72a10.425 10.425 0 0 1 4.4-0.085 3.94 3.94 0 0 1 2.315 1.1C15.275 4.775 15.27 6.5 14 6.5z" style="fill:#a1d8df"/>
    <path class="cls-4" d="M10.5 2.5v1.5a0.5 0.5 0 0 1-1 0V2.5h1zM12.5 2.805V3.5a0.5 0.5 0 0 1-1 0V2.61c0.24 0.035 0.855 0.155 1 0.195zM8.5 2.61V3.5a0.5 0.5 0 0 1-1 0V2.805c0.095-0.025 0.65-0.14 1-0.195z"/>
  </g>
</svg>
